<svg xmlns="http://www.w3.org/2000/svg"  viewBox="0 0 100 100" width="100px" height="100px"><path d="M73,89c-12.785,0-23.358-9.646-24.826-22.042H26.219c0.851,1.839,0.836,4.049-0.237,5.942	l-4.826,8.521c-1.152,2.033-3.319,3.296-5.656,3.296s-4.504-1.263-5.656-3.296l-4.826-8.52c-1.766-3.119-0.666-7.093,2.452-8.859	c0.481-0.273,0.996-0.483,1.53-0.625V25.458c0-5.79,4.71-10.5,10.5-10.5h65c5.79,0,10.5,4.71,10.5,10.5v26.685	c1.967,3.642,3,7.71,3,11.857C98,77.785,86.785,89,73,89z" opacity=".35"/><path fill="#f2f2f2" d="M71,87c-12.785,0-23.358-9.646-24.826-22.042H24.219c0.851,1.839,0.836,4.049-0.237,5.942	l-4.826,8.521c-1.152,2.033-3.319,3.296-5.656,3.296s-4.504-1.263-5.656-3.296l-4.826-8.52c-1.766-3.119-0.666-7.093,2.452-8.859	c0.481-0.273,0.996-0.483,1.53-0.625V23.458c0-5.79,4.71-10.5,10.5-10.5h65c5.79,0,10.5,4.71,10.5,10.5v26.685	c1.967,3.642,3,7.71,3,11.857C96,75.785,84.785,87,71,87z"/><rect width="71" height="38.5" x="14.5" y="19" fill="#70bfff"/><rect width="60" height="26" x="20" y="26" fill="#f2f2f2"/><circle cx="71" cy="62" r="17" fill="#96c362"/><path fill="#f2f2f2" d="M71,71.957L71,71.957c-1.105,0-2-0.895-2-2V54.043c0-1.105,0.895-2,2-2l0,0c1.105,0,2,0.895,2,2	v15.915C73,71.062,72.105,71.957,71,71.957z"/><path fill="#f2f2f2" d="M61.043,62L61.043,62c0-1.105,0.895-2,2-2h15.915c1.105,0,2,0.895,2,2l0,0c0,1.105-0.895,2-2,2	H63.043C61.938,64,61.043,63.105,61.043,62z"/><path fill="#40396e" d="M71,82c-11.028,0-20-8.972-20-20c0-0.674,0.036-1.356,0.108-2.042H17.5c-3.032,0-5.5-2.467-5.5-5.5	v-31c0-3.033,2.468-5.5,5.5-5.5h65c3.032,0,5.5,2.467,5.5,5.5v28.024c1.964,3.167,3,6.794,3,10.518C91,73.028,82.028,82,71,82z M17.5,20.958c-1.379,0-2.5,1.122-2.5,2.5v31c0,1.378,1.121,2.5,2.5,2.5h37.167l-0.347,1.786C54.107,59.839,54,60.934,54,62	c0,9.374,7.626,17,17,17s17-7.626,17-17c0-3.292-0.953-6.495-2.757-9.262L85,52.365V23.458c0-1.378-1.121-2.5-2.5-2.5H17.5z"/><line x1="13.5" x2="13.5" y1="51" y2="75.17" fill="none" stroke="#40396e" stroke-linecap="round" stroke-linejoin="round" stroke-miterlimit="10" stroke-width="3"/><polyline fill="none" stroke="#40396e" stroke-linecap="round" stroke-linejoin="round" stroke-miterlimit="10" stroke-width="3" points="18.326,67.697 15.913,71.957 13.5,76.217 11.087,71.957 8.674,67.697"/></svg>