<svg xmlns="http://www.w3.org/2000/svg"  viewBox="0 0 100 100" width="100px" height="100px"><circle cx="52" cy="52" r="44" opacity=".35"/><circle cx="50" cy="50" r="44" fill="#f2f2f2"/><path fill="#f2f2f2" d="M50,91C27.393,91,9,72.607,9,50S27.393,9,50,9s41,18.393,41,41S72.607,91,50,91z"/><circle cx="50.026" cy="50.026" r="38.026" fill="#96c362"/><path fill="#40396e" d="M50,89c-21.505,0-39-17.495-39-39s17.495-39,39-39s39,17.495,39,39S71.505,89,50,89z M50,14 c-19.851,0-36,16.149-36,36s16.149,36,36,36s36-16.149,36-36S69.851,14,50,14z"/><g><path fill="#fff" d="M50,71c-1.657,0-3-1.343-3-3V32c0-1.657,1.343-3,3-3s3,1.343,3,3v36C53,69.657,51.657,71,50,71z"/></g><g><path fill="#fff" d="M68,53H32c-1.657,0-3-1.343-3-3s1.343-3,3-3h36c1.657,0,3,1.343,3,3S69.657,53,68,53z"/></g></svg>